# xmcd
#
# Track frame offsets: 
#        150
#        45288
#        66868
#        95408
#        120015
#        133940
#        150875
#        171225
#        196077
#        223365
#        254305
#        290282
#
# Disc length: 4253 seconds
#
# Revision: 1
# Processed by: cddbd v1.5.2PL0 Copyright (c) Steve Scherf et al.
# Submitted via: ExactAudioCopy v1.0b3
#
DISCID=a0109b0c
DTITLE=Marvin Sease - Best Of Marvin Sease Millenium Collection
DYEAR=2003
DGENRE=Soul
TTITLE0=Candy Licker
TTITLE1=Double Crosser
TTITLE2=Ghetto Man
TTITLE3=Love Is A Game
TTITLE4=I Ate You For My Breakfast
TTITLE5=Tell Me Why
TTITLE6=Motel Lover
TTITLE7=It's All Over
TTITLE8=Stuck In The Middle
TTITLE9=Take Me Back
TTITLE10=Tonight
TTITLE11=Funky Christmas
EXTD=YEAR: 2003
EXTT0=
EXTT1=
EXTT2=
EXTT3=
EXTT4=
EXTT5=
EXTT6=
EXTT7=
EXTT8=
EXTT9=
EXTT10=
EXTT11=
PLAYORDER=
